<svg xmlns="http://www.w3.org/2000/svg" xmlns:xlink="http://www.w3.org/1999/xlink" width="1920" zoomAndPan="magnify" viewBox="0 0 1440 809.999993" height="1080" preserveAspectRatio="xMidYMid meet" version="1.2"><defs><clipPath id="da5370a7fa"><path d="M 8 0 L 305 0 L 305 809.996094 L 8 809.996094 Z M 8 0 "/></clipPath><clipPath id="c1e5a38908"><path d="M 19 0 L 294 0 L 294 809.996094 L 19 809.996094 Z M 19 0 "/></clipPath><clipPath id="61bc8fed52"><path d="M 0.00390625 428 L 70 428 L 70 659 L 0.00390625 659 Z M 0.00390625 428 "/></clipPath></defs><g id="2fd1480843"><g clip-rule="nonzero" clip-path="url(#da5370a7fa)"><path style=" stroke:none;fill-rule:nonzero;fill:#ffffff;fill-opacity:1;" d="M 46.914062 0.671875 C 45.640625 3.335938 43.660156 5.042969 44.230469 6.546875 C 46.640625 19.113281 57.132812 28.359375 41.90625 27.996094 C 40.816406 33.574219 47.914062 29.839844 40.0625 40.019531 C 44.070312 48.035156 36.695312 38.722656 37.265625 44.050781 C 40.746094 38.289062 35.695312 50.152344 35.351562 50.21875 C 35.945312 52.15625 36.488281 53.386719 36.96875 54.207031 C 35.832031 54.476562 34.054688 55.527344 31.503906 58.191406 C 20.125 68.960938 25.679688 66.136719 24.109375 70.257812 C 25.472656 76.246094 18.507812 75.472656 18.554688 79.4375 C 23.765625 88.75 23.902344 96.46875 18.214844 97.605469 C 11.386719 106.351562 21.035156 101.957031 18.121094 107.078125 C 19.351562 108.96875 24.3125 114.003906 20.125 114.296875 C 21.105469 114.617188 23.972656 120.902344 15.734375 119.761719 C 11.660156 125.910156 1.597656 128.371094 15.347656 130.011719 C 16.484375 143.511719 25.359375 154.625 23.8125 168.605469 C 20.945312 174.871094 30.414062 179.21875 29.253906 184.636719 C 36.058594 190.992188 47.003906 196.023438 42.066406 203.46875 C 52.125 205.996094 37.71875 208.320312 42.339844 210.824219 C 43.066406 213.695312 44.046875 214.332031 44.230469 217.246094 C 31.597656 223.257812 38.992188 228.109375 49.894531 233.6875 C 59 241.816406 52.921875 253.453125 51.761719 262.242188 C 51.171875 271.101562 38.949219 278.226562 45.117188 286.265625 C 37.832031 299.109375 35.035156 312.382812 32.121094 324.246094 C 32.804688 328.800781 31.800781 332.535156 29.433594 337.726562 C 37.128906 344.789062 11.386719 351.1875 27.5 358.132812 C 18.191406 364.347656 30.4375 370.585938 27.636719 376.804688 C 18.625 383.863281 30.09375 390.808594 24.289062 397.730469 C 8.722656 410.550781 19.011719 424.097656 21.832031 437.375 C 13.683594 444.617188 34.101562 450.492188 29.117188 457.480469 C 28.433594 462.265625 28.5 466.386719 30.710938 471.191406 C 32.550781 477.339844 36.125 483.304688 37.285156 489.429688 C 49.667969 500.382812 47.621094 510.289062 40.5625 522.0625 C 42.203125 532.171875 48.097656 542.28125 40.519531 552.390625 C 33.851562 559.839844 42.292969 566.851562 42.5 574.320312 C 42.589844 581.902344 41.589844 589.484375 42.542969 597.070312 C 40.949219 604.652344 46.503906 612.257812 42.429688 619.816406 C 42.25 627.832031 42.523438 635.257812 40.5625 643.042969 C 39.039062 650.058594 50.738281 654.589844 32.53125 660.757812 C 29.753906 665.859375 25.269531 670.367188 26.019531 677.859375 C 22.3125 681.183594 30.800781 688.335938 27.136719 694.347656 C 30.890625 704.640625 30.367188 704.527344 27.546875 714.386719 C 29.503906 724.472656 37.128906 726.429688 27.136719 731.464844 C 23.882812 752.300781 16.257812 743.804688 28.957031 771.679688 C 47.324219 781.035156 27.429688 780.695312 33.144531 803.078125 C 33.257812 805.765625 33.347656 807.769531 33.394531 809.296875 L 260.792969 809.296875 C 260.90625 806.246094 263.25 803.148438 267.890625 803.191406 C 273.878906 802.828125 273.421875 794.515625 273.195312 793.8125 C 272.625 795.90625 273.945312 786.867188 274.5625 778.214844 C 277.199219 763.480469 270.714844 771.949219 276.019531 761.019531 C 282.777344 752.457031 290.015625 737.453125 274.652344 734.675781 C 266.980469 729.640625 267.277344 726.910156 269.03125 726.476562 C 256.464844 724.972656 260.882812 718.667969 268.007812 714.292969 C 255.921875 710.742188 265.457031 696.578125 267.140625 692.390625 C 265.777344 686.398438 273.195312 676.496094 267.140625 667.589844 C 264.363281 661.691406 266.003906 655.203125 268.9375 646.777344 C 261.496094 643.316406 274.3125 627.921875 273.285156 633.640625 C 282.003906 626.488281 280.046875 628.699219 274.582031 621.933594 C 286.988281 611.871094 277.996094 604.96875 274.949219 598.414062 C 281.433594 595.339844 275.949219 591.992188 278.316406 588.941406 C 291.652344 585.320312 274.289062 580.71875 281.890625 577.417969 C 279.042969 573.886719 282.253906 571.269531 289.539062 568.378906 C 300.1875 564.460938 287.398438 563.527344 293.339844 558.789062 C 294.792969 550 315.050781 543.214844 296.886719 534.015625 C 293.839844 526.84375 280.59375 519.351562 297.277344 511.996094 C 293.019531 504.617188 296.933594 497.375 294.523438 490.703125 C 286.554688 487.039062 296.457031 483.144531 292.292969 479.570312 C 285.074219 473.285156 272.351562 467.25 282.300781 461.285156 C 271.304688 452.5625 278.429688 441.542969 278.703125 431.363281 C 271.054688 422.460938 282.207031 412.03125 280.296875 402.648438 C 280.320312 398.003906 266.707031 394.453125 276.359375 390.214844 C 275.585938 386.550781 273.105469 382.65625 273.261719 379.125 C 274.105469 375.234375 276.8125 371.703125 268.234375 367.945312 C 275.472656 364.300781 269.917969 359.019531 263.089844 356.195312 C 279.296875 354.078125 250.027344 354.945312 256.695312 353.28125 C 262.089844 352.234375 245.519531 350.617188 254.121094 349.476562 C 250.957031 345.585938 241.648438 345.105469 250.34375 339.1875 C 247.40625 331.808594 244.789062 324.929688 248.75 318.121094 C 246.382812 310.8125 247.273438 304.324219 246.65625 296.648438 C 241.671875 289.042969 252.507812 281.394531 246.613281 273.789062 C 245.929688 269.4375 247.226562 266.410156 248.523438 262.195312 C 239.078125 260.304688 245.792969 258.710938 248.84375 256.753906 C 249.910156 253.066406 256.332031 250.015625 252.414062 246.300781 C 260.402344 241.792969 258.195312 238.421875 253.574219 233.914062 C 252.324219 231.683594 251.734375 230.566406 255.941406 228.335938 C 260.882812 220.957031 254.757812 214.921875 261.585938 208.753906 C 267.277344 202.921875 262.226562 192.949219 258.265625 186.074219 C 253.644531 182.863281 249.730469 179.265625 254.144531 171.203125 C 258.21875 172.867188 265.023438 166.855469 250.296875 161.160156 C 233.660156 149.25 248.980469 147.042969 255.964844 142.125 C 257.492188 136.5 264.636719 119.332031 257.742188 118.691406 C 258.652344 105.757812 265.617188 98.449219 265.34375 90.867188 C 265.296875 98.128906 256.898438 78.25 269.578125 81.234375 C 269.851562 73.878906 282.140625 65.75 280.410156 70.464844 C 286.375 68.4375 290.835938 52.246094 286.007812 50.128906 C 275.039062 49.445312 298.574219 24.738281 293.339844 40.429688 C 300.554688 37.398438 304.695312 29.042969 295.179688 29.75 C 291.015625 19.867188 287.398438 27.3125 300.691406 10.667969 C 294.792969 7.273438 296.183594 3.996094 298.34375 0.691406 L 46.914062 0.691406 Z M 46.914062 0.671875 "/></g><g clip-rule="nonzero" clip-path="url(#c1e5a38908)"><path style=" stroke:none;fill-rule:nonzero;fill:#ededed;fill-opacity:1;" d="M 54.902344 0.671875 C 53.71875 3.335938 51.898438 5.042969 52.398438 6.546875 C 54.652344 19.113281 64.347656 28.359375 50.261719 27.996094 C 49.257812 33.574219 55.835938 29.839844 48.554688 40.019531 C 52.261719 48.035156 45.433594 38.722656 45.957031 44.050781 C 49.191406 38.289062 44.5 50.152344 44.183594 50.21875 C 44.730469 52.15625 45.230469 53.386719 45.683594 54.207031 C 44.617188 54.476562 43 55.527344 40.609375 58.191406 C 30.050781 68.960938 35.191406 66.136719 33.757812 70.257812 C 35.011719 76.246094 28.570312 75.472656 28.613281 79.4375 C 33.464844 88.75 33.578125 96.46875 28.296875 97.605469 C 21.96875 106.351562 30.890625 101.957031 28.207031 107.078125 C 29.34375 108.96875 33.964844 114.003906 30.070312 114.296875 C 30.980469 114.617188 33.621094 120.902344 26.019531 119.761719 C 22.242188 125.910156 12.910156 128.371094 25.65625 130.011719 C 26.726562 143.511719 34.941406 154.625 33.484375 168.605469 C 30.824219 174.871094 39.585938 179.21875 38.515625 184.636719 C 44.820312 190.992188 54.972656 196.023438 50.398438 203.46875 C 59.726562 205.996094 46.367188 208.320312 50.648438 210.824219 C 51.308594 213.695312 52.21875 214.332031 52.398438 217.246094 C 40.679688 223.257812 47.550781 228.109375 57.65625 233.6875 C 66.101562 241.816406 60.480469 253.453125 59.386719 262.242188 C 58.816406 271.101562 47.507812 278.226562 53.21875 286.265625 C 46.480469 299.109375 43.886719 312.382812 41.15625 324.246094 C 41.792969 328.800781 40.859375 332.535156 38.675781 337.726562 C 45.800781 344.789062 21.921875 351.1875 36.898438 358.132812 C 28.273438 364.347656 39.632812 370.585938 37.035156 376.804688 C 28.683594 383.863281 39.3125 390.808594 33.917969 397.730469 C 19.488281 410.550781 29.023438 424.097656 31.640625 437.375 C 24.085938 444.617188 43.023438 450.492188 38.402344 457.480469 C 37.765625 462.265625 37.832031 466.386719 39.882812 471.191406 C 41.589844 477.339844 44.886719 483.304688 45.980469 489.429688 C 57.453125 500.382812 55.539062 510.289062 49.007812 522.0625 C 50.53125 532.171875 55.996094 542.28125 48.960938 552.390625 C 42.792969 559.839844 50.601562 566.851562 50.785156 574.320312 C 50.875 581.902344 49.941406 589.484375 50.828125 597.070312 C 49.347656 604.652344 54.492188 612.257812 50.714844 619.816406 C 50.554688 627.832031 50.785156 635.257812 48.984375 643.042969 C 47.574219 650.058594 58.40625 654.589844 41.542969 660.757812 C 38.949219 665.859375 34.804688 670.367188 35.511719 677.859375 C 32.074219 681.183594 39.949219 688.335938 36.558594 694.347656 C 40.039062 704.640625 39.539062 704.527344 36.945312 714.386719 C 38.765625 724.472656 45.820312 726.429688 36.558594 731.464844 C 33.53125 752.300781 26.476562 743.804688 38.242188 771.679688 C 55.265625 781.035156 36.832031 780.695312 42.132812 803.078125 C 42.25 805.765625 42.339844 807.769531 42.386719 809.296875 L 253.167969 809.296875 C 253.257812 806.246094 255.441406 803.148438 259.742188 803.191406 C 265.296875 802.828125 264.863281 794.515625 264.660156 793.8125 C 264.136719 795.90625 265.34375 786.867188 265.933594 778.214844 C 268.394531 763.480469 262.363281 771.949219 267.277344 761.019531 C 273.535156 752.457031 280.25 737.453125 266.003906 734.675781 C 258.902344 729.640625 259.152344 726.910156 260.792969 726.476562 C 249.136719 724.972656 253.234375 718.667969 259.835938 714.292969 C 248.636719 710.742188 257.46875 696.578125 259.039062 692.390625 C 257.765625 686.398438 264.660156 676.496094 259.039062 667.589844 C 256.464844 661.691406 257.96875 655.203125 260.699219 646.777344 C 253.804688 643.316406 265.683594 627.921875 264.730469 633.640625 C 272.808594 626.488281 270.988281 628.699219 265.933594 621.933594 C 277.429688 611.871094 269.097656 604.96875 266.277344 598.414062 C 272.285156 595.339844 267.210938 591.992188 269.394531 588.941406 C 281.753906 585.320312 265.660156 580.71875 272.695312 577.417969 C 270.054688 573.886719 273.035156 571.269531 279.796875 568.378906 C 289.671875 564.460938 277.816406 563.527344 283.324219 558.789062 C 284.667969 550 303.445312 543.214844 286.601562 534.015625 C 283.777344 526.84375 271.511719 519.351562 286.964844 511.996094 C 283.027344 504.617188 286.648438 497.375 284.394531 490.703125 C 277.019531 487.039062 286.167969 483.144531 282.320312 479.570312 C 275.628906 473.285156 263.839844 467.25 273.058594 461.285156 C 262.863281 452.5625 269.460938 441.542969 269.734375 431.363281 C 262.632812 422.460938 272.992188 412.03125 271.214844 402.648438 C 271.238281 398.003906 258.605469 394.453125 267.574219 390.214844 C 266.84375 386.550781 264.546875 382.65625 264.707031 379.125 C 265.503906 375.234375 267.984375 371.703125 260.039062 367.945312 C 266.730469 364.300781 261.585938 359.019531 255.28125 356.195312 C 270.304688 354.078125 243.175781 354.945312 249.367188 353.28125 C 254.371094 352.234375 239.007812 350.617188 246.976562 349.476562 C 244.039062 345.585938 235.414062 345.105469 243.46875 339.1875 C 240.761719 331.808594 238.328125 324.929688 241.992188 318.121094 C 239.804688 310.8125 240.625 304.324219 240.058594 296.648438 C 235.4375 289.042969 245.472656 281.394531 240.011719 273.789062 C 239.375 269.4375 240.582031 266.410156 241.785156 262.195312 C 233.046875 260.304688 239.261719 258.710938 242.082031 256.753906 C 243.082031 253.066406 249.023438 250.015625 245.40625 246.300781 C 252.800781 241.792969 250.753906 238.421875 246.476562 233.914062 C 245.3125 231.683594 244.769531 230.566406 248.683594 228.335938 C 253.257812 220.957031 247.589844 214.921875 253.917969 208.753906 C 259.199219 202.921875 254.507812 192.949219 250.84375 186.074219 C 246.566406 182.863281 242.925781 179.265625 247.019531 171.203125 C 250.800781 172.867188 257.105469 166.855469 243.449219 161.160156 C 228.015625 149.25 242.21875 147.042969 248.707031 142.125 C 250.117188 136.5 256.738281 119.332031 250.34375 118.691406 C 251.1875 105.757812 257.648438 98.449219 257.398438 90.867188 C 257.355469 98.128906 249.570312 78.25 261.316406 81.234375 C 261.566406 73.878906 272.945312 65.75 271.351562 70.464844 C 276.882812 68.4375 281.023438 52.246094 276.542969 50.128906 C 266.367188 49.445312 288.195312 24.738281 283.324219 40.429688 C 290.015625 37.398438 293.863281 29.042969 285.03125 29.75 C 281.160156 19.867188 277.816406 27.3125 290.128906 10.667969 C 284.667969 7.273438 285.964844 3.996094 287.964844 0.691406 L 54.902344 0.691406 Z M 54.902344 0.671875 "/></g><g clip-rule="nonzero" clip-path="url(#61bc8fed52)"><path style=" stroke:none;fill-rule:nonzero;fill:#ccae79;fill-opacity:0.8;" d="M 3.34375 658.460938 L 0.109375 429.519531 L 66.628906 428.578125 L 69.863281 657.519531 Z M 3.34375 658.460938 "/></g></g></svg>